<svg width="260" height="260" viewBox="0 0 260 260" fill="none" xmlns="http://www.w3.org/2000/svg">
<g clip-path="url(#clip0_2611_7236)">
<path d="M31.2819 178.808C28.6353 224.481 89.87 278.584 164.894 253.746C218.916 235.861 230.225 176.705 207.466 149.759C184.706 122.815 207.895 95.8292 191.871 53.771C155.623 -41.376 8.90732 7.05305 37.1834 86.1876C52.6411 129.451 33.2085 145.587 31.2819 178.808Z" fill="white"/>
<path d="M107.594 92.7338C105.531 92.2031 103.445 93.3413 102.948 95.2706C102.452 97.2 103.726 99.2012 105.791 99.7319C107.857 100.263 109.94 99.1243 110.436 97.195C110.933 95.2657 109.659 93.2645 107.594 92.7338ZM107.979 97.0685L108.783 97.2744C108.862 97.2942 108.902 97.381 108.867 97.4554C108.778 97.6439 108.674 97.8125 108.552 97.9662C108.52 98.0059 108.468 98.0258 108.418 98.0134L108.036 97.9142C108.003 97.9067 107.974 97.8844 107.956 97.8547L107.705 97.4331C107.668 97.3711 107.591 97.3512 107.529 97.3884L107.107 97.6389C107.077 97.6563 107.043 97.6612 107.01 97.6538L105.737 97.3264C105.704 97.319 105.675 97.2967 105.657 97.2669L105.406 96.8429C105.369 96.7809 105.292 96.761 105.23 96.7982L104.806 97.0487C104.776 97.0661 104.741 97.071 104.709 97.0636L104.324 96.9644C104.274 96.952 104.237 96.9098 104.23 96.8602C104.197 96.6668 104.187 96.4659 104.2 96.2601C104.205 96.1783 104.282 96.1212 104.361 96.1436L105.168 96.3519C105.238 96.3692 105.307 96.3271 105.324 96.2601L105.436 95.8237C105.454 95.7542 105.411 95.6848 105.344 95.6674L104.515 95.4542C104.441 95.4343 104.398 95.355 104.426 95.2831C104.55 94.9706 104.714 94.6978 104.922 94.4721C104.925 94.4697 104.927 94.4647 104.932 94.4622C104.992 94.4002 105.094 94.4126 105.136 94.487L105.62 95.3029C105.657 95.3649 105.734 95.3847 105.796 95.3475L106.186 95.1194C106.248 95.0822 106.268 95.0053 106.231 94.9433L105.714 94.0704C105.675 94.0034 105.704 93.9142 105.776 93.8844C105.846 93.8571 105.915 93.8323 105.987 93.81C106.255 93.7331 106.534 93.7059 106.822 93.7282C106.901 93.7356 106.956 93.8125 106.936 93.8894L106.683 94.8764C106.665 94.9458 106.707 95.0152 106.774 95.0326L107.211 95.1442C107.281 95.1615 107.35 95.1194 107.368 95.0524L107.621 94.0704C107.641 93.9935 107.725 93.9514 107.8 93.9861C108.055 94.1051 108.276 94.2589 108.463 94.4473C108.52 94.5069 108.574 94.5688 108.624 94.6333C108.671 94.6953 108.656 94.7846 108.589 94.8243L107.735 95.3277C107.673 95.3649 107.653 95.4418 107.691 95.5038L107.919 95.8931C107.956 95.9551 108.033 95.9749 108.095 95.9377L108.897 95.4641C108.969 95.4219 109.063 95.4566 109.086 95.5385C109.168 95.841 109.185 96.1584 109.145 96.4932C109.135 96.5701 109.061 96.6222 108.987 96.6023L108.16 96.3891C108.09 96.3717 108.021 96.4139 108.003 96.4808L107.892 96.9173C107.874 96.9867 107.916 97.0562 107.983 97.0735L107.979 97.0685Z" fill="#FCC56F"/>
<path d="M107.802 91.9179C105.257 91.2632 102.695 92.6668 102.079 95.05C101.464 97.4331 103.033 99.8956 105.578 100.55C108.123 101.205 110.685 99.8013 111.3 97.4182C111.916 95.0351 110.347 92.5726 107.802 91.9179ZM105.744 99.9129C103.582 99.3575 102.246 97.2545 102.767 95.226C103.289 93.1975 105.476 91.9997 107.638 92.5552C109.801 93.1107 111.137 95.2136 110.615 97.2421C110.094 99.2707 107.907 100.468 105.744 99.9129Z" fill="#FCC56F"/>
<path d="M125.519 69.7183C122.098 71.6079 120.757 75.7443 122.525 78.9408C124.293 82.1374 128.516 83.2012 131.937 81.3141C135.356 79.4269 136.699 75.288 134.931 72.0915C133.164 68.895 128.94 67.8311 125.522 69.7183H125.519ZM131.495 75.0078L132.828 74.2713C132.96 74.1994 133.121 74.2638 133.169 74.4052C133.288 74.7673 133.36 75.1268 133.392 75.4839C133.399 75.5782 133.355 75.6699 133.27 75.7146L132.635 76.0642C132.58 76.094 132.516 76.1014 132.456 76.0841L131.59 75.8361C131.465 75.7989 131.334 75.8733 131.297 75.9973L131.048 76.8627C131.031 76.9222 130.991 76.9743 130.937 77.0041L128.829 78.1696C128.774 78.1994 128.71 78.2068 128.65 78.1894L127.781 77.939C127.657 77.9018 127.525 77.9762 127.488 78.1002L127.237 78.9681C127.22 79.0276 127.18 79.0797 127.126 79.1095L126.487 79.4616C126.406 79.5062 126.304 79.4988 126.227 79.4418C125.939 79.2235 125.673 78.9706 125.43 78.678C125.335 78.5639 125.365 78.3903 125.497 78.3184L126.835 77.5794C126.949 77.5174 126.991 77.3736 126.927 77.2595L126.527 76.5354C126.465 76.4213 126.321 76.3792 126.207 76.4436L124.831 77.2025C124.707 77.2719 124.551 77.2173 124.499 77.0859C124.27 76.5155 124.146 75.9452 124.139 75.3798C124.139 75.3723 124.139 75.3624 124.139 75.355C124.139 75.1987 124.29 75.0896 124.442 75.1318L126.115 75.6129C126.239 75.6501 126.371 75.5757 126.408 75.4517L126.636 74.6581C126.674 74.5341 126.599 74.4027 126.475 74.3655L124.687 73.8497C124.548 73.81 124.479 73.6563 124.539 73.5248C124.596 73.4008 124.658 73.2793 124.727 73.1603C124.988 72.7214 125.326 72.3345 125.738 72.0022C125.852 71.9105 126.021 71.9452 126.09 72.0741L126.996 73.7108C127.058 73.8249 127.202 73.8671 127.317 73.8026L128.042 73.4033C128.156 73.3413 128.198 73.1975 128.134 73.0834L127.232 71.4566C127.16 71.3277 127.222 71.1665 127.361 71.1194C127.851 70.9557 128.34 70.8813 128.826 70.8987C128.978 70.9036 129.127 70.921 129.276 70.9433C129.417 70.9656 129.509 71.1045 129.469 71.2434L128.965 72.9917C128.928 73.1157 129.002 73.2471 129.127 73.2843L129.921 73.5124C130.045 73.5496 130.177 73.4753 130.214 73.3513L130.686 71.7146C130.728 71.5682 130.899 71.4963 131.031 71.5757C131.031 71.5757 131.031 71.5757 131.033 71.5757C131.525 71.8757 131.95 72.2775 132.317 72.771C132.401 72.885 132.364 73.0487 132.24 73.1157L130.872 73.872C130.758 73.934 130.716 74.0779 130.78 74.1919L131.18 74.916C131.242 75.0301 131.386 75.0723 131.5 75.0078H131.495Z" fill="#FCC56F"/>
<path d="M124.769 68.3643C120.551 70.6928 118.903 75.784 121.09 79.7319C123.275 83.6798 128.466 84.9942 132.684 82.6656C136.903 80.337 138.551 75.2459 136.364 71.2979C134.177 67.35 128.988 66.0357 124.769 68.3643ZM132.101 81.6116C128.516 83.5906 124.087 82.4672 122.227 79.1045C120.367 75.7443 121.77 71.3996 125.355 69.4182C128.94 67.4393 133.37 68.5627 135.229 71.9253C137.089 75.2855 135.686 79.6302 132.101 81.6116Z" fill="#FCC56F"/>
<path d="M150.724 59.1541C153.209 61.0636 156.688 60.7263 158.478 58.4027C160.265 56.0791 159.699 52.6346 157.214 50.7251C154.729 48.8156 151.25 49.1529 149.463 51.4765C147.675 53.8001 148.241 57.2446 150.727 59.1516L150.724 59.1541ZM152.708 53.0685L151.74 52.3246C151.645 52.2527 151.64 52.1113 151.73 52.032C151.958 51.8286 152.199 51.66 152.455 51.5211C152.522 51.4839 152.604 51.4889 152.663 51.536L153.125 51.8906C153.165 51.9204 153.192 51.9675 153.197 52.0171L153.291 52.7338C153.304 52.8379 153.401 52.9098 153.505 52.8974L154.222 52.8032C154.272 52.7958 154.322 52.8106 154.361 52.8404L155.893 54.0183C155.933 54.0481 155.96 54.0952 155.965 54.1448L156.06 54.864C156.072 54.9681 156.169 55.04 156.273 55.0276L156.993 54.9334C157.043 54.9259 157.092 54.9408 157.132 54.9706L157.594 55.3252C157.653 55.3723 157.681 55.4492 157.661 55.5236C157.591 55.8038 157.492 56.0816 157.353 56.3543C157.298 56.461 157.162 56.4932 157.068 56.4213L156.094 55.6749C156.012 55.6104 155.893 55.6277 155.829 55.7096L155.424 56.2353C155.359 56.3171 155.377 56.4362 155.459 56.5007L156.459 57.2694C156.549 57.3388 156.559 57.4703 156.479 57.5521C156.132 57.9042 155.752 58.177 155.337 58.363C155.332 58.3655 155.325 58.368 155.32 58.3705C155.205 58.4201 155.074 58.3432 155.059 58.2192L154.878 56.8354C154.865 56.7313 154.769 56.6594 154.664 56.6718L154.006 56.7586C153.902 56.771 153.83 56.8677 153.842 56.9718L154.036 58.4523C154.051 58.5664 153.962 58.668 153.845 58.6656C153.736 58.6656 153.626 58.6556 153.517 58.6432C153.11 58.5936 152.718 58.4697 152.34 58.2713C152.236 58.2167 152.209 58.0803 152.281 57.9886L153.197 56.7982C153.261 56.7164 153.244 56.5974 153.162 56.5329L152.636 56.1287C152.554 56.0642 152.435 56.0816 152.37 56.1634L151.459 57.3463C151.387 57.4405 151.248 57.4455 151.169 57.3587C150.89 57.0512 150.679 56.7164 150.538 56.3519C150.493 56.2378 150.456 56.1237 150.426 56.0072C150.396 55.8956 150.471 55.784 150.585 55.7691L152.035 55.5806C152.139 55.5682 152.211 55.4715 152.199 55.3674L152.112 54.7102C152.1 54.606 152.003 54.5341 151.898 54.5465L150.54 54.7226C150.419 54.7375 150.312 54.6358 150.327 54.5143C150.391 54.058 150.55 53.6166 150.796 53.1876C150.853 53.0884 150.985 53.0636 151.074 53.133L152.07 53.8968C152.152 53.9613 152.271 53.9439 152.335 53.8621L152.74 53.3364C152.805 53.2545 152.787 53.1355 152.705 53.071L152.708 53.0685Z" fill="#FCC56F"/>
<path d="M149.967 60.1386C153.033 62.4945 157.311 62.0754 159.521 59.2037C161.73 56.332 161.037 52.0964 157.971 49.7431C154.905 47.3872 150.627 47.8063 148.418 50.678C146.208 53.5496 146.901 57.7852 149.967 60.1386ZM157.378 50.5093C159.982 52.5106 160.573 56.1262 158.691 58.5689C156.809 61.0115 153.16 61.3711 150.555 59.3698C147.951 57.3686 147.36 53.753 149.242 51.3103C151.124 48.8677 154.773 48.5081 157.378 50.5093Z" fill="#FCC56F"/>
<path d="M192.797 58.9086C187.494 56.6842 181.485 58.9086 179.402 63.8633C177.319 68.8206 179.939 74.6606 185.239 76.885C190.543 79.1095 196.551 76.885 198.634 71.9303C200.717 66.9755 198.098 61.133 192.797 58.9086ZM192.127 70.6284L194.195 71.4963C194.396 71.5806 194.47 71.8286 194.349 72.0121C194.041 72.4783 193.688 72.89 193.303 73.2545C193.202 73.3512 193.055 73.3785 192.926 73.3264L191.94 72.9123C191.856 72.8776 191.789 72.8082 191.754 72.7238L191.253 71.4963C191.181 71.3178 190.977 71.2335 190.798 71.3054L189.569 71.8063C189.485 71.841 189.388 71.841 189.304 71.8063L186.034 70.4349C185.949 70.4002 185.882 70.3308 185.848 70.2465L185.344 69.0165C185.272 68.8379 185.068 68.7536 184.889 68.8255L183.658 69.3289C183.573 69.3636 183.477 69.3636 183.392 69.3289L182.404 68.9148C182.275 68.8602 182.193 68.7362 182.191 68.5974C182.181 68.0667 182.23 67.5286 182.347 66.983C182.392 66.7697 182.62 66.6482 182.821 66.7325L184.897 67.603C185.073 67.6773 185.277 67.593 185.351 67.417L185.823 66.2961C185.897 66.12 185.813 65.9167 185.637 65.8423L183.504 64.947C183.313 64.8677 183.231 64.6346 183.335 64.456C183.787 63.6699 184.333 63.0103 184.981 62.4845C184.991 62.4771 185.001 62.4697 185.008 62.4622C185.19 62.3209 185.455 62.3953 185.542 62.6061L186.513 64.9768C186.585 65.1553 186.789 65.2397 186.965 65.1677L188.092 64.7065C188.271 64.6346 188.355 64.4312 188.283 64.2551L187.248 61.7232C187.168 61.5273 187.28 61.3041 187.486 61.2545C187.68 61.2074 187.876 61.1677 188.08 61.1405C188.824 61.0388 189.579 61.076 190.339 61.2496C190.548 61.2967 190.662 61.5248 190.58 61.7232L189.512 64.2601C189.438 64.4362 189.522 64.6395 189.698 64.7139L190.821 65.1851C190.997 65.2595 191.2 65.1752 191.275 64.9991L192.335 62.4746C192.42 62.2762 192.663 62.1994 192.844 62.3159C193.48 62.7325 194.011 63.2285 194.436 63.8038C194.567 63.9848 194.686 64.1708 194.796 64.3618C194.9 64.5453 194.82 64.7784 194.627 64.8578L192.146 65.8695C191.968 65.9415 191.883 66.1448 191.955 66.3209L192.415 67.4467C192.487 67.6253 192.69 67.7096 192.869 67.6377L195.193 66.6904C195.401 66.606 195.64 66.7375 195.667 66.9607C195.667 66.9607 195.667 66.9632 195.667 66.9656C195.766 67.8038 195.692 68.6618 195.453 69.5372C195.399 69.7381 195.175 69.8447 194.984 69.7629L192.864 68.8726C192.688 68.7982 192.484 68.8826 192.41 69.0586L191.938 70.1795C191.863 70.3556 191.948 70.5589 192.124 70.6333L192.127 70.6284Z" fill="#FCC56F"/>
<path d="M193.678 56.8106C187.139 54.0679 179.75 56.8082 177.175 62.9309C174.601 69.0537 177.816 76.2403 184.356 78.983C190.895 81.7257 198.284 78.9855 200.858 72.8627C203.433 66.74 200.218 59.5534 193.678 56.8106ZM185.046 77.3488C179.487 75.0177 176.748 68.8826 178.938 63.6699C181.128 58.4573 187.434 56.1163 192.991 58.4473C198.549 60.7784 201.288 66.9136 199.096 72.1262C196.906 77.3364 190.602 79.6798 185.043 77.3488H185.046Z" fill="#FCC56F"/>
<path d="M91.0288 164.131C83.7667 166.18 79.4194 173.369 81.3411 180.156C83.2602 186.943 90.7308 190.799 97.9929 188.749C105.255 186.7 109.6 179.511 107.681 172.721C105.761 165.934 98.2908 162.078 91.0288 164.129V164.131ZM99.9369 176.704L102.767 175.906C103.045 175.826 103.321 176.022 103.346 176.307C103.41 177.039 103.388 177.746 103.291 178.435C103.266 178.616 103.137 178.767 102.963 178.817L101.613 179.199C101.496 179.231 101.372 179.216 101.265 179.159L99.7457 178.311C99.5247 178.187 99.2492 178.266 99.125 178.487L98.2759 180.005C98.2163 180.111 98.1195 180.188 98.0028 180.22L93.5264 181.485C93.4097 181.517 93.2856 181.503 93.1788 181.445L91.6544 180.595C91.4334 180.471 91.1554 180.55 91.0337 180.771L90.1821 182.294C90.1226 182.4 90.0257 182.477 89.909 182.509L88.5559 182.891C88.3797 182.941 88.1935 182.879 88.0768 182.738C87.6323 182.202 87.2426 181.609 86.9148 180.952C86.7857 180.694 86.9198 180.384 87.1979 180.307L90.0381 179.506C90.2815 179.437 90.4205 179.186 90.3534 178.943L89.919 177.408C89.8494 177.165 89.5987 177.026 89.3554 177.093L86.4332 177.917C86.17 177.991 85.8994 177.82 85.8572 177.55C85.6784 176.374 85.6958 175.251 85.9317 174.182C85.9341 174.167 85.9391 174.152 85.9416 174.135C86.0111 173.842 86.3438 173.701 86.607 173.847L89.5416 175.486C89.7601 175.61 90.0381 175.531 90.1623 175.31L90.9419 173.917C91.066 173.696 90.9866 173.421 90.7656 173.297L87.6299 171.543C87.3866 171.407 87.322 171.087 87.4908 170.866C87.6497 170.661 87.821 170.46 88.0048 170.266C88.6875 169.552 89.4919 168.977 90.413 168.533C90.6663 168.411 90.9692 168.55 91.0461 168.823L92.0293 172.3C92.0988 172.543 92.3496 172.682 92.5929 172.615L94.1297 172.181C94.373 172.111 94.5121 171.861 94.445 171.618L93.4668 168.161C93.3899 167.888 93.5761 167.61 93.8591 167.583C94.8522 167.491 95.8031 167.566 96.7118 167.811C96.9948 167.888 97.2704 167.982 97.5385 168.092C97.7943 168.193 97.9035 168.498 97.7694 168.739L96.0539 171.804C95.9297 172.025 96.0092 172.3 96.2301 172.424L97.6254 173.202C97.8464 173.326 98.122 173.247 98.2461 173.026L99.8549 170.155C99.9989 169.897 100.354 169.837 100.565 170.043C100.565 170.043 100.568 170.046 100.57 170.048C101.359 170.827 101.985 171.769 102.457 172.86C102.566 173.111 102.425 173.403 102.161 173.478L99.2566 174.299C99.0133 174.368 98.8743 174.618 98.9413 174.861L99.3758 176.397C99.4453 176.64 99.6961 176.778 99.9394 176.711L99.9369 176.704Z" fill="#FCC56F"/>
<path d="M90.2144 161.257C81.2566 163.784 75.9187 172.632 78.2922 181.016C80.6657 189.401 89.847 194.152 98.8047 191.623C107.763 189.096 113.1 180.248 110.727 171.863C108.356 163.476 99.1722 158.728 90.2144 161.257ZM98.1716 189.386C90.5595 191.534 82.7239 187.474 80.7055 180.337C78.687 173.2 83.2379 165.646 90.85 163.499C98.4621 161.351 106.295 165.411 108.314 172.548C110.332 179.685 105.781 187.238 98.1716 189.386Z" fill="#FCC56F"/>
<path d="M117.639 120.067C117.562 120.151 117.49 120.238 117.408 120.32C117.502 120.238 117.579 120.153 117.639 120.067Z" fill="white"/>
<path d="M137.96 116.277C135.656 117.205 132.367 118.103 129.663 118.77C129.655 118.77 129.653 118.762 129.658 118.757C134.268 114.864 138.442 110.926 141.002 108.441C142.226 107.253 142.124 105.418 140.699 104.481C139.743 103.851 138.519 103.955 137.67 104.674C134.042 107.744 125.772 115.199 119.389 115.432C119.387 115.432 119.382 115.432 119.382 115.427C119.377 114.802 119.561 112.404 119.496 111.796C119.067 107.747 117.512 103.896 115.126 100.59L112.974 97.6092C112.296 96.6718 110.866 96.7859 110.342 97.8199C109.575 99.3327 109.528 101.113 110.218 102.663L110.826 104.034C112.639 108.196 114.086 120.32 102.313 116.751C94.9292 114.514 94.8125 109.584 95.751 106.219C95.751 106.219 95.6343 103.298 102.298 95.479C102.976 94.6854 102.884 93.4926 102.099 92.8057C101.417 92.208 100.411 92.1708 99.6861 92.7164L98.3405 93.7282C89.6657 100.248 87.7441 108.516 82.6892 118.11C81.8748 119.655 81.1101 121.081 80.4199 122.286C74.2726 132.974 56.6277 149.178 36.7756 150.802C36.7731 150.802 36.7706 150.802 36.7706 150.807C34.5858 158.356 32.4655 166.145 31.5742 175.152C31.5742 175.157 31.5792 175.159 31.5817 175.159C58.8647 168.273 85.6784 140.682 85.7082 140.652C91.8183 136.02 106.524 132.404 106.524 132.404C121.726 129.349 135.075 122.864 139.907 120.337C141.081 119.722 141.488 118.214 140.719 117.076C140.12 116.193 138.953 115.883 137.963 116.282L137.96 116.277ZM117.408 120.322C117.49 120.24 117.562 120.153 117.639 120.069C117.579 120.156 117.502 120.24 117.408 120.322Z" fill="#FCC56F"/>
<path d="M111.77 185.086C110.945 184.344 110.178 183.707 109.461 183.154C107.686 186.502 104.704 189.292 100.905 190.889C104.438 195.015 113.383 206.187 120.531 221.247L124.288 211.91L135.656 210.817C135.656 210.817 126.182 198.053 111.772 185.086H111.77Z" fill="#578FF5"/>
<path d="M100.927 190.876C100.245 191.164 99.5372 191.417 98.8047 191.625C95.4654 192.568 92.0963 192.498 89.0599 191.605C89.6955 197.555 90.6414 211.204 88.2779 226.864L96.6125 221.212L106.655 226.646C106.655 226.646 105.93 210.775 101.223 191.98C101.126 191.598 101.029 191.233 100.93 190.879L100.927 190.876Z" fill="#578FF5"/>
<path d="M76.2142 10.8218C74.5035 16.8702 78.3766 23.2756 84.8467 25.1008C91.3168 26.926 97.973 23.4914 99.6836 17.443C101.394 11.3946 97.5212 4.98919 91.0511 3.16401C84.581 1.33884 77.9248 4.77344 76.2142 10.8193V10.8218ZM83.6128 14.0878L84.0001 12.7189C84.0621 12.5031 83.9355 12.28 83.7195 12.218L81.1325 11.4864C80.8966 11.4194 80.77 11.1615 80.8693 10.9359C81.2889 9.96377 81.845 9.12558 82.5502 8.43122C82.5502 8.43122 82.5526 8.43122 82.5551 8.42874C82.7438 8.24523 83.0591 8.29731 83.1882 8.52793L84.6208 11.0847C84.73 11.2806 84.9783 11.35 85.1744 11.2409L86.4158 10.5465C86.6119 10.4374 86.6815 10.1894 86.5722 9.99353L85.0428 7.26321C84.9237 7.04746 85.0205 6.77716 85.2489 6.68788C85.4872 6.59117 85.733 6.50685 85.9838 6.4399C86.7932 6.22167 87.6398 6.15472 88.5261 6.23655C88.7769 6.25887 88.9432 6.50933 88.8762 6.75236L88.0048 9.83234C87.9427 10.0481 88.0693 10.2713 88.2853 10.3333L89.6558 10.7201C89.8718 10.7821 90.0952 10.6556 90.1573 10.4399L91.0337 7.34257C91.1008 7.10202 91.3714 6.97555 91.5973 7.08466C92.4191 7.47896 93.1366 7.99477 93.7449 8.62961C93.9087 8.80072 94.0602 8.97927 94.2042 9.16526C94.3557 9.36116 94.2985 9.64635 94.0801 9.76786L91.2845 11.3302C91.0883 11.4393 91.0188 11.6873 91.1281 11.8832L91.8232 13.1231C91.9325 13.319 92.1808 13.3884 92.3769 13.2793L94.9937 11.8187C95.2271 11.6873 95.525 11.8137 95.5871 12.0741C95.5896 12.089 95.5945 12.1014 95.597 12.1163C95.8056 13.0685 95.823 14.0704 95.6616 15.1169C95.6243 15.3574 95.3835 15.5112 95.1501 15.4442L92.5482 14.7102C92.3322 14.6482 92.1088 14.7747 92.0467 14.9904L91.6594 16.3593C91.5973 16.5751 91.7239 16.7982 91.9399 16.8602L94.4723 17.5744C94.7181 17.6439 94.8373 17.9216 94.7231 18.1498C94.4301 18.735 94.0825 19.2632 93.6878 19.7393C93.5835 19.8658 93.4172 19.9204 93.2608 19.8757L92.0566 19.536C91.9523 19.5062 91.8654 19.4368 91.8133 19.3426L91.0536 17.9861C90.9443 17.7902 90.6961 17.7207 90.4999 17.8299L89.1419 18.5887C89.0475 18.6408 88.9358 18.6532 88.834 18.6259L84.8442 17.5C84.7399 17.4703 84.653 17.4008 84.6009 17.3066L83.8437 15.9551C83.7344 15.7592 83.4861 15.6897 83.29 15.7989L81.9369 16.5552C81.8426 16.6073 81.7308 16.6197 81.629 16.5924L80.4274 16.2527C80.271 16.208 80.1568 16.0741 80.1344 15.9129C80.0475 15.2979 80.0277 14.668 80.0848 14.0158C80.1071 13.7604 80.3529 13.5868 80.6012 13.6563L83.1237 14.368C83.3397 14.43 83.5631 14.3035 83.6252 14.0878H83.6128Z" fill="#FCC56F"/>
<path d="M73.498 10.0555C71.3852 17.5273 76.1422 25.4108 84.1217 27.6625C92.1013 29.9142 100.284 25.6835 102.397 18.2118C104.51 10.74 99.7532 2.85651 91.7736 0.604808C83.794 -1.6469 75.6108 2.58373 73.498 10.0555ZM75.6481 10.6631C77.4456 4.30475 84.4271 0.686643 91.21 2.60109C97.9929 4.51553 102.047 11.2458 100.247 17.6042C98.4472 23.9625 91.4682 27.5806 84.6853 25.6662C77.9024 23.7517 73.8506 17.0214 75.6481 10.6631Z" fill="#FCC56F"/>
<path d="M72.572 21.8348C73.3044 21.1752 73.9896 20.6048 74.6302 20.1138C76.2117 23.0971 78.8682 25.5844 82.2547 27.0053C79.1066 30.6804 71.1369 40.6346 64.7687 54.0555L61.4219 45.7381L51.2923 44.7635C51.2923 44.7635 59.7336 33.3909 72.572 21.8373V21.8348Z" fill="#258B52"/>
<path d="M82.2299 26.9954C82.8381 27.2533 83.4688 27.479 84.1217 27.6625C87.0961 28.5031 90.1002 28.4387 92.8064 27.6451C92.2403 32.9445 91.3987 45.1082 93.5041 59.0599L86.0781 54.0233L77.1303 58.864C77.1303 58.864 77.7758 44.7214 81.9717 27.9774C82.0561 27.6352 82.143 27.3128 82.2324 26.9954H82.2299Z" fill="#258B52"/>
<path d="M203.879 219.938L172.123 215.993C170.937 215.845 169.855 216.687 169.707 217.872L168.354 228.739C168.207 229.924 169.049 231.004 170.235 231.152L201.991 235.097C203.178 235.244 204.259 234.403 204.407 233.218L205.76 222.351C205.907 221.165 205.065 220.085 203.879 219.938Z" fill="#1D1D1B"/>
<path d="M228.345 158.323C227.742 157.324 226.607 156.63 225.311 156.468L219.442 155.739C219.665 154.968 219.849 154.306 219.986 153.785C220.169 153.086 219.628 152.387 218.829 152.287L174.104 146.728C173.305 146.628 172.607 147.174 172.615 147.896C172.62 148.307 172.627 148.803 172.644 149.371L166.954 148.664C165.655 148.503 164.387 148.897 163.557 149.718C162.872 150.398 162.542 151.318 162.649 152.248C163.332 158.157 167.791 171.806 180.132 178.76C183.824 185.77 184.269 189.557 184.179 191.238C184.147 191.868 184.671 192.421 185.368 192.508L196.67 193.912C197.368 193.998 198.013 193.592 198.135 192.972C198.453 191.36 199.756 187.925 204.754 182.274C220.922 178.822 227.305 164.409 228.603 160.994C228.936 160.119 228.839 159.144 228.342 158.321L228.345 158.323ZM167.562 152.568L172.84 153.225C173.176 157.907 173.993 164.33 175.966 170.093C176.066 170.385 175.703 170.606 175.49 170.383C169.707 164.302 167.478 156.749 166.743 153.463C166.631 152.962 167.051 152.503 167.562 152.568ZM210.422 175.754C214.072 170.599 216.669 164.206 218.282 159.422L223.844 160.114C224.34 160.176 224.633 160.697 224.43 161.155C222.662 165.15 218.608 172.158 210.787 176.171C210.519 176.31 210.248 176 210.424 175.754H210.422Z" fill="#F8C16F"/>
<path d="M201.268 216.238C201.268 216.238 202.234 209.222 199.585 204.166C197.256 199.722 197.884 197.453 197.884 197.453L183.42 195.653C183.42 195.653 183.472 198.006 180.125 201.746C176.316 205.998 175.532 213.036 175.532 213.036L175.117 216.374L200.858 219.573L201.273 216.235L201.268 216.238Z" fill="#F8C16F"/>
<path d="M183.683 191.127L182.98 196.771L190.508 197.708L198.038 198.643L198.741 192.999L183.683 191.127Z" fill="#F8C16F"/>
<path d="M184.135 188.317C183.4 188.225 182.737 188.687 182.655 189.346L182.6 189.78C182.518 190.44 183.047 191.047 183.782 191.139L198.639 192.984C199.374 193.076 200.037 192.615 200.119 191.955L200.173 191.521C200.255 190.861 199.726 190.254 198.991 190.162L184.135 188.317Z" fill="#1D1D1B"/>
<path d="M190.508 197.708L183.079 196.786C182.344 196.694 181.682 197.155 181.6 197.815L181.545 198.249C181.463 198.909 181.992 199.516 182.727 199.608L197.584 201.453C198.319 201.545 198.981 201.083 199.063 200.424L199.118 199.99C199.2 199.33 198.671 198.723 197.936 198.631L190.508 197.708Z" fill="#1D1D1B"/>
<path d="M191.836 212.607C191.94 212.62 192.035 212.538 192.035 212.431C192.03 211.972 191.95 211.543 191.786 211.147C191.742 211.04 191.608 211.01 191.516 211.08L190.51 211.861C190.433 211.92 190.322 211.908 190.262 211.831L189.882 211.345C189.823 211.268 189.835 211.157 189.912 211.097L190.984 210.261C191.069 210.197 191.076 210.07 190.999 209.996C190.922 209.922 190.836 209.842 190.746 209.773C190.461 209.55 190.133 209.379 189.763 209.264C189.659 209.232 189.549 209.302 189.537 209.411L189.366 210.79C189.353 210.886 189.266 210.956 189.17 210.943L188.556 210.866C188.46 210.854 188.39 210.767 188.402 210.671L188.576 209.284C188.589 209.175 188.502 209.081 188.395 209.086C188 209.106 187.625 209.19 187.275 209.341C187.181 209.384 187.089 209.428 187.002 209.478C186.908 209.53 186.883 209.654 186.95 209.741L187.804 210.837C187.864 210.914 187.851 211.025 187.774 211.085L187.288 211.464C187.211 211.524 187.099 211.511 187.039 211.434L186.24 210.41C186.168 210.318 186.029 210.318 185.959 210.413C185.957 210.418 185.952 210.423 185.949 210.428C185.706 210.772 185.53 211.171 185.416 211.618C185.391 211.72 185.46 211.821 185.565 211.836L186.729 211.98C186.826 211.992 186.895 212.079 186.883 212.176L186.806 212.788C186.794 212.885 186.707 212.955 186.61 212.942L185.478 212.801C185.368 212.786 185.272 212.878 185.279 212.989C185.296 213.272 185.346 213.542 185.426 213.8C185.445 213.867 185.503 213.917 185.575 213.927L186.113 213.994C186.16 213.999 186.208 213.986 186.242 213.959L186.776 213.545C186.853 213.485 186.965 213.498 187.024 213.574L187.439 214.108C187.469 214.145 187.511 214.17 187.556 214.175L189.341 214.398C189.388 214.403 189.435 214.39 189.47 214.363L190.001 213.949C190.078 213.889 190.19 213.902 190.25 213.979L190.664 214.509C190.694 214.547 190.736 214.571 190.781 214.576L191.32 214.643C191.389 214.653 191.459 214.618 191.493 214.557C191.632 214.326 191.747 214.075 191.834 213.808C191.868 213.701 191.799 213.592 191.687 213.577L190.557 213.436C190.461 213.423 190.391 213.336 190.404 213.24L190.48 212.627C190.493 212.53 190.58 212.461 190.677 212.473L191.836 212.617V212.607Z" fill="white"/>
<path d="M194.912 223.837L179.856 221.966L179.197 227.255L194.253 229.125L194.912 223.837Z" fill="#F8C16F"/>
<path d="M219.819 152.958C219.944 151.947 209.577 149.827 196.663 148.222C183.748 146.618 173.177 146.137 173.051 147.148C172.925 148.159 183.292 150.28 196.207 151.884C209.121 153.489 219.693 153.969 219.819 152.958Z" fill="#222222"/>
</g>
<defs>
<clipPath id="clip0_2611_7236">
<rect width="197.6" height="260" fill="white" transform="translate(31.1992)"/>
</clipPath>
</defs>
</svg>
