<svg width="25" height="25" viewBox="0 0 25 25" fill="none" xmlns="http://www.w3.org/2000/svg">
<path d="M9.6875 5H15.3125V3.4375C15.3125 2.92969 15.7031 2.5 16.25 2.5C16.7578 2.5 17.1875 2.92969 17.1875 3.4375V5H18.75C20.1172 5 21.25 6.13281 21.25 7.5V20C21.25 21.4062 20.1172 22.5 18.75 22.5H6.25C4.84375 22.5 3.75 21.4062 3.75 20V7.5C3.75 6.13281 4.84375 5 6.25 5H7.8125V3.4375C7.8125 2.92969 8.20312 2.5 8.75 2.5C9.25781 2.5 9.6875 2.92969 9.6875 3.4375V5ZM5.625 20C5.625 20.3516 5.89844 20.625 6.25 20.625H18.75C19.0625 20.625 19.375 20.3516 19.375 20V10H5.625V20Z" fill="#222222"/>
</svg>
