<svg width="25" height="25" viewBox="0 0 25 25" fill="none" xmlns="http://www.w3.org/2000/svg">
<path d="M17.7089 12.3736C17.8837 12.3736 18.0211 12.211 17.9973 12.0272C17.8974 11.2313 17.6777 10.5042 17.3281 9.8524C17.3281 9.8524 17.3268 9.84975 17.3256 9.84843C17.2319 9.67524 17.0047 9.6488 16.8711 9.79026L15.3865 11.3622C15.2729 11.4825 15.0893 11.4825 14.9757 11.3622L14.2553 10.5994C14.1417 10.4791 14.1417 10.2847 14.2553 10.1644L15.841 8.48538C15.9659 8.35317 15.9509 8.13636 15.811 8.02266C15.6712 7.90896 15.5126 7.7913 15.3528 7.6895C14.8384 7.36295 14.2678 7.13952 13.6422 7.01789C13.4649 6.98352 13.3014 7.13026 13.3014 7.32196V9.74928C13.3014 9.91982 13.1715 10.0573 13.0104 10.0573H11.9916C11.8305 10.0573 11.7007 9.91982 11.7007 9.74928V7.30874C11.7007 7.11837 11.5396 6.97162 11.3623 7.00467C10.7193 7.12365 10.1249 7.35105 9.58303 7.69082C9.4357 7.78204 9.29711 7.8812 9.16351 7.98696C9.02117 8.09934 9.00493 8.3188 9.13104 8.45233L10.7517 10.1684C10.8653 10.2887 10.8653 10.483 10.7517 10.6033L10.0313 11.3662C9.91766 11.4865 9.73412 11.4865 9.62049 11.3662L8.10345 9.75985C7.96735 9.61575 7.73761 9.64748 7.64521 9.82463C7.64022 9.83389 7.63522 9.84314 7.63023 9.8524C7.30185 10.5055 7.09583 11.2326 7.00219 12.0298C6.98096 12.2123 7.11706 12.3736 7.29186 12.3736H9.22719C9.38825 12.3736 9.51811 12.5111 9.51811 12.6816V13.7604C9.51811 13.931 9.38825 14.0685 9.22719 14.0685H7.3443C7.16076 14.0685 7.02466 14.2456 7.05837 14.4373C7.14577 14.9252 7.28312 15.3813 7.46167 15.8123C7.50912 15.9246 7.61275 16 7.72887 16H8.62411C8.70153 16 8.77519 15.9669 8.83013 15.9101L9.61675 15.0772C9.73037 14.9569 9.91391 14.9569 10.0275 15.0772L10.8142 15.9101C10.8691 15.9683 10.9428 16 11.0202 16H13.9868C14.0642 16 14.1379 15.9669 14.1929 15.9101L14.977 15.0798C15.0906 14.9595 15.2741 14.9595 15.3878 15.0798L16.1719 15.9101C16.2268 15.9683 16.3005 16 16.3779 16H17.2719C17.388 16 17.4929 15.926 17.5391 15.8123C17.7189 15.3813 17.855 14.9252 17.9424 14.4386C17.9761 14.2483 17.84 14.0698 17.6565 14.0698H15.7811C15.62 14.0698 15.4901 13.9323 15.4901 13.7617V12.6829C15.4901 12.5124 15.62 12.3749 15.7811 12.3749H17.7052L17.7089 12.3736Z" fill="#222222"/>
<circle cx="12.5" cy="12.5" r="9.6" stroke="#222222" stroke-width="1.8"/>
</svg>
