<svg width="25" height="25" viewBox="0 0 25 25" fill="none" xmlns="http://www.w3.org/2000/svg">
<path d="M11.5625 22.0312C9.53125 19.4922 5 13.4375 5 10C5 5.85938 8.32031 2.5 12.5 2.5C16.6406 2.5 20 5.85938 20 10C20 13.4375 15.4297 19.4922 13.3984 22.0312C12.9297 22.6172 12.0312 22.6172 11.5625 22.0312ZM17.5 12.2656C17.9297 11.25 18.125 10.5078 18.125 10C18.125 6.91406 15.5859 4.375 12.5 4.375C9.375 4.375 6.875 6.91406 6.875 10C6.875 10.5078 7.03125 11.25 7.46094 12.2656C7.85156 13.2031 8.4375 14.2969 9.10156 15.3906C10.2344 17.1875 11.5234 18.9062 12.5 20.1562C13.4375 18.9062 14.7266 17.1875 15.8594 15.3906C16.5234 14.2969 17.1094 13.2031 17.5 12.2656Z" fill="#222222"/>
</svg>
