<svg width="25" height="25" viewBox="0 0 25 25" fill="none" xmlns="http://www.w3.org/2000/svg">
<path d="M3.125 5.625C3.125 4.60938 3.94531 3.75 5 3.75C6.01562 3.75 6.875 4.60938 6.875 5.625C6.875 6.67969 6.01562 7.5 5 7.5C3.94531 7.5 3.125 6.67969 3.125 5.625ZM5.625 8.75C6.52344 8.75 7.42188 9.0625 8.125 9.57031C7.65625 9.96094 7.26562 10.4688 6.95312 11.0156C6.5625 10.7812 6.09375 10.625 5.625 10.625H4.375V18.125H5.625V17.5C5.625 16.9922 6.01562 16.5625 6.5625 16.5625C7.07031 16.5625 7.5 16.9922 7.5 17.5V18.75C7.5 19.4531 6.91406 20 6.25 20H3.75C3.04688 20 2.5 19.4531 2.5 18.75V17.1094C1.01562 16.4062 0 14.8828 0 13.125C0 10.7422 1.95312 8.75 4.375 8.75H5.625ZM2.5 11.4844C2.10938 11.9141 1.875 12.5 1.875 13.125C1.875 13.7891 2.10938 14.375 2.5 14.8047V11.4844ZM19.375 10.625C18.8672 10.625 18.3984 10.7812 18.0078 11.0156C17.6953 10.4688 17.3047 9.96094 16.8359 9.57031C17.5391 9.0625 18.4375 8.75 19.375 8.75H20.625C23.0078 8.75 25 10.7422 25 13.125C25 14.8828 23.9453 16.4062 22.5 17.1094V18.75C22.5 19.4531 21.9141 20 21.25 20H18.75C18.0469 20 17.5 19.4531 17.5 18.75V17.5C17.5 16.9922 17.8906 16.5625 18.4375 16.5625C18.9453 16.5625 19.375 16.9922 19.375 17.5V18.125H20.625V10.625H19.375ZM22.5 11.4844V14.8047C22.8516 14.375 23.125 13.7891 23.125 13.125C23.125 12.5 22.8516 11.9141 22.5 11.4844ZM21.875 5.625C21.875 6.67969 21.0156 7.5 20 7.5C18.9453 7.5 18.125 6.67969 18.125 5.625C18.125 4.60938 18.9453 3.75 20 3.75C21.0156 3.75 21.875 4.60938 21.875 5.625ZM10.3125 5.9375C10.3125 4.76562 11.2891 3.75 12.5 3.75C13.6719 3.75 14.6875 4.76562 14.6875 5.9375C14.6875 7.14844 13.6719 8.125 12.5 8.125C11.2891 8.125 10.3125 7.14844 10.3125 5.9375ZM13.125 9.375C15.5078 9.375 17.5 11.3672 17.5 13.75C17.5 15.5078 16.4453 17.0312 15 17.7344V20C15 20.7031 14.4141 21.25 13.75 21.25H11.25C10.5469 21.25 10 20.7031 10 20V17.7344C8.51562 17.0312 7.5 15.5078 7.5 13.75C7.5 11.3672 9.45312 9.375 11.875 9.375H13.125ZM11.875 19.375H13.125V11.25H11.875V19.375ZM10 15.4297V12.1094C9.60938 12.5391 9.375 13.125 9.375 13.75C9.375 14.4141 9.60938 15 10 15.4297ZM15.625 13.75C15.625 13.125 15.3516 12.5391 15 12.1094V15.4297C15.3516 15 15.625 14.4141 15.625 13.75Z" fill="#222222"/>
</svg>
