<svg width="25" height="25" viewBox="0 0 25 25" fill="none" xmlns="http://www.w3.org/2000/svg">
<path d="M12.0895 3.25C12.441 3.25 12.7223 3.46094 12.8629 3.74219L15.2887 8.69922L20.6676 9.50781C20.984 9.54297 21.2301 9.78906 21.3355 10.0703C21.441 10.3867 21.3707 10.7031 21.1246 10.9492L17.2223 14.8164L18.1363 20.2656C18.2066 20.582 18.066 20.9336 17.8199 21.1094C17.5387 21.2852 17.1871 21.3203 16.9059 21.1797L12.0895 18.5781L7.27305 21.1797C6.9918 21.3203 6.67539 21.2852 6.39414 21.1094C6.14805 20.9336 6.00742 20.582 6.04258 20.2656L6.9918 14.8164L3.08945 10.9492C2.84336 10.7031 2.77305 10.3867 2.87852 10.0703C2.98398 9.78906 3.23008 9.54297 3.54648 9.50781L8.92539 8.69922L11.3512 3.74219C11.4918 3.46094 11.773 3.25 12.0895 3.25ZM12.0895 6.02734L10.2613 9.85938C10.1207 10.1055 9.90977 10.2812 9.62852 10.3164L5.44492 10.9141L8.46836 13.9023C8.6793 14.1133 8.74961 14.3945 8.71445 14.6758L8.01133 18.8594L11.7027 16.8906C11.9488 16.75 12.2652 16.75 12.5113 16.8906L16.2027 18.8594L15.4996 14.6758C15.4293 14.3945 15.5348 14.1133 15.7457 13.9023L18.734 10.9141L14.5855 10.3164C14.3043 10.2812 14.0582 10.1055 13.9527 9.85938L12.0895 6.02734Z" fill="black"/>
</svg>
